<svg xmlns="http://www.w3.org/2000/svg" viewBox="0 0 441.64 197.01"><title>thecommunitymind_logo2</title><g id="Layer_2" data-name="Layer 2"><g id="Layer_1-2" data-name="Layer 1"><path d="M257.48,28.45H251V25.93h16v2.52h-6.44V49.92h-3.08Z"/><path d="M278.88,49.92V38.57c0-2.88-1-3.88-2.84-3.88a4.49,4.49,0,0,0-3.92,3.52V49.92h-3v-24l3-.48V35A6.31,6.31,0,0,1,277,32.25c3.68,0,4.92,2.56,4.92,6V49.92Z"/><path d="M291.84,50.32c-4.16,0-7-3.08-7-9.12,0-5.56,2.88-9,6.64-9s5.64,2.64,5.64,7.08a9,9,0,0,1-.2,1.84h-9.12c-.12,3.56,1,6.84,5,6.84a5.28,5.28,0,0,0,3.56-1.56l1,1.64A7.2,7.2,0,0,1,291.84,50.32Zm-.28-15.92c-1.92,0-3.12,1.72-3.6,4.72h6.48C294.6,36.17,293.8,34.41,291.56,34.41Z"/><path d="M264.35,98.32c-7.05,0-12.2-5.3-12.2-15.4s5.15-15.4,12.2-15.4a10.85,10.85,0,0,1,7.2,2.2v3.45a9.4,9.4,0,0,0-6.45-2.4c-5.2,0-9,4-9,12.15s3.75,12.15,9,12.15a9.14,9.14,0,0,0,6.45-2.35v3.45A11.33,11.33,0,0,1,264.35,98.32Z"/><path d="M283.24,98.47c-5.25,0-8.9-4.2-8.9-11.35s3.65-11.35,8.9-11.35,8.8,4.3,8.8,11.35S288.39,98.47,283.24,98.47Zm0-19.75c-3.35,0-5.15,3.05-5.15,8.4s1.8,8.4,5.15,8.4,5.05-2.95,5.05-8.4S286.44,78.72,283.24,78.72Z"/><path d="M319,97.92V83.67c0-3.5-.95-4.8-3.25-4.8s-4.15,2.05-4.65,4.4V97.92h-3.75V83.67c0-3.5-1-4.8-3.25-4.8s-4.15,2.05-4.65,4.4V97.92h-3.75V76.52L299,76l.2,3.55a7.42,7.42,0,0,1,6-3.7,5.08,5.08,0,0,1,5.4,3.9c1.75-2.65,4.15-3.9,6.3-3.9,4.6,0,5.8,3.2,5.8,7.5v14.6Z"/><path d="M350.79,97.92V83.67c0-3.5-.95-4.8-3.25-4.8s-4.15,2.05-4.65,4.4V97.92h-3.75V83.67c0-3.5-1-4.8-3.25-4.8s-4.15,2.05-4.65,4.4V97.92h-3.75V76.52l3.35-.55.2,3.55a7.42,7.42,0,0,1,6-3.7,5.08,5.08,0,0,1,5.4,3.9c1.75-2.65,4.15-3.9,6.3-3.9,4.6,0,5.8,3.2,5.8,7.5v14.6Z"/><path d="M374.79,98.27c-2,0-3.15-1-3.3-3.3a7.76,7.76,0,0,1-6.15,3.45c-4.55,0-6.1-3.2-6.1-7.5V76.32H363v14.2c0,3.6,1.2,4.85,3.55,4.85s4.4-2.15,4.9-4.4V76.32h3.75V95c0,.9.3,1.3,1,1.3a2.11,2.11,0,0,0,1-.25v1.5A4,4,0,0,1,374.79,98.27Z"/><path d="M392.79,97.92V83.72c0-3.6-1.25-4.85-3.55-4.85s-4.4,2.15-4.9,4.4V97.92h-3.75V76.52l3.35-.55.2,3.55a7.8,7.8,0,0,1,6.25-3.7c4.6,0,6.15,3.2,6.15,7.5v14.6Z"/><path d="M403.14,72.37a2.25,2.25,0,0,1,0-4.5,2.25,2.25,0,0,1,0,4.5Zm-1.85,25.55V76.37l3.75-.6V97.92Z"/><path d="M414.84,98.27c-2.9,0-4.25-1.8-4.25-5.8V78.77H408V76.32h2.55V71.07l3.75-.6v5.85h4.2v2.45h-4.2V92.62c0,2,.5,2.9,2,2.9a4.36,4.36,0,0,0,2.5-.8l.45,2A6.82,6.82,0,0,1,414.84,98.27Z"/><path d="M428.39,103.37c-1.25,3.3-2.75,4.55-5.05,4.55a5.76,5.76,0,0,1-2.15-.45v-2.6a4.25,4.25,0,0,0,1.3.25c1.8,0,2.8-1.5,4.45-7.4l-7.05-21.4h3.8l5.05,16.5,5-16.5h3.65Z"/><path d="M256.72,115.93h9.36L287.2,174l21.12-58.08h8.76v72h-8.64V141.85c0-1.2.12-4.8.24-6.6l-.6-.12c-.6,2.52-1.44,5.4-1.8,6.72l-16.44,46.08h-6.12l-16.44-46.08a66.83,66.83,0,0,1-1.8-6.72l-.6.12c.12,2,.24,5.4.24,6.6v46.08h-8.4Z"/><path d="M333.16,126.61a5.4,5.4,0,0,1,0-10.8,5.4,5.4,0,1,1,0,10.8Zm-4.44,61.32V136.21l9-1.44v53.16Z"/><path d="M378.52,187.92V153.85c0-8.64-3-11.64-8.52-11.64s-10.56,5.16-11.76,10.56v35.16h-9V136.57l8-1.32.48,8.52c3-5,9.24-8.88,15-8.88,11,0,14.76,7.68,14.76,18v35Z"/><path d="M436.12,188.76c-4.68,0-7.2-2-7.8-6.72A16.16,16.16,0,0,1,415,189.12c-10.92,0-18.48-9.6-18.48-27.12s7.56-27.12,18.48-27.12a16.11,16.11,0,0,1,13.08,6.84v-25.8l9-1.44v66.36c0,2.16.72,3.12,2.28,3.12a5,5,0,0,0,2.28-.6V187A9.09,9.09,0,0,1,436.12,188.76Zm-8-39c-2.4-4.32-5.76-8-11.4-8-6.36,0-11.16,6.24-11.16,20.28s4.8,20.28,11.16,20.28c5.64,0,9-3.72,11.4-8Z"/><path d="M37.95,87.16S-.31,90.29,7.57,71.9C10.51,65.54,17,62.34,17,62.34s-1.77-29,27.43-26.2C42.84,15.18,85.55-13.5,122,14.9c9.09-6.34,50.73-10.76,53.76,18.75,0,0,32,9.93,22.19,41.37,0,0,16.36,3.86,11,21.79,0,0,14,32.54-16.81,33.37-13,.49-21.22-10.48-20.47-16,0,0-31,6.87-37.48-9.94a20,20,0,0,1-.62-8S96,109.09,80.12,85C80.12,85,57.06,99.57,37.95,87.16Z" fill="#cc699f" stroke="#991464" stroke-miterlimit="10" stroke-width="6"/><ellipse cx="32.36" cy="115.7" rx="7.48" ry="6.38" fill="#05446b"/><path d="M32.36,112.32c2.43,0,4.48,1.55,4.48,3.38s-2.05,3.38-4.48,3.38-4.48-1.55-4.48-3.38,2.05-3.38,4.48-3.38m0-6c-5.79,0-10.48,4.2-10.48,9.38s4.69,9.38,10.48,9.38,10.48-4.2,10.48-9.38-4.69-9.38-10.48-9.38Z" fill="#05446b"/><ellipse cx="75.07" cy="118.63" rx="7.48" ry="6.38" fill="#05446b"/><path d="M75.07,115.25c2.43,0,4.48,1.55,4.48,3.38S77.5,122,75.07,122s-4.48-1.55-4.48-3.38,2.05-3.38,4.48-3.38m0-6c-5.79,0-10.48,4.2-10.48,9.38S69.28,128,75.07,128s10.48-4.2,10.48-9.38-4.69-9.38-10.48-9.38Z" fill="#05446b"/><ellipse cx="117.88" cy="125.08" rx="7.48" ry="6.38" fill="#05446b"/><path d="M117.88,121.7c2.43,0,4.48,1.55,4.48,3.38s-2.05,3.38-4.48,3.38-4.48-1.55-4.48-3.38,2.05-3.38,4.48-3.38m0-6c-5.79,0-10.48,4.2-10.48,9.38s4.69,9.38,10.48,9.38,10.48-4.2,10.48-9.38-4.69-9.38-10.48-9.38Z" fill="#05446b"/><ellipse cx="150.41" cy="136.59" rx="6.6" ry="5.59" fill="#05446b"/><path d="M150.41,134c1.92,0,3.6,1.21,3.6,2.59s-1.68,2.59-3.6,2.59-3.6-1.21-3.6-2.59,1.68-2.59,3.6-2.59m0-6c-5.3,0-9.6,3.85-9.6,8.59s4.3,8.59,9.6,8.59,9.6-3.85,9.6-8.59-4.3-8.59-9.6-8.59Z" fill="#05446b"/><ellipse cx="184.17" cy="144.58" rx="4.73" ry="3.92" fill="#05446b"/><path d="M184.17,143.66c1.13,0,1.73.65,1.73.92s-.61.92-1.73.92-1.73-.65-1.73-.92.61-.92,1.73-.92m0-6c-4.27,0-7.73,3.1-7.73,6.92s3.46,6.92,7.73,6.92,7.73-3.1,7.73-6.92-3.46-6.92-7.73-6.92Z" fill="#05446b"/><path d="M74,188.3c-27.82-8.46-47.73-22.37-59.35-41.52-9.78-16.12-11.94-33.3-11.59-46.65,6.51,32.39,24.42,35.35,30.64,35.35a13.42,13.42,0,0,0,1.92-.12c5.81-.91,10.37-6.06,13.86-12.41-.6,21.63,3.84,39.41,13.27,53.08A60,60,0,0,0,74,188.3Z" fill="#179fce"/><path d="M8.16,122.48a40.85,40.85,0,0,0,4,5.49c8.31,9.47,17.81,10.49,21.51,10.49a16.36,16.36,0,0,0,2.39-.15,18,18,0,0,0,10.45-6c.78,18.06,5.36,33.24,13.73,45.36q1.28,1.85,2.61,3.52c-20.84-8.31-36.12-20.32-45.62-35.92a75.39,75.39,0,0,1-9.13-22.85m-4.47-47S-28.65,175.51,98.21,197c-3.06-.54-59.64-11.78-42.54-101.76-.36,1.9-6.92,35-20.49,37.16a10.69,10.69,0,0,1-1.46.08c-6.1,0-29.23-3.53-30-57Zm52,19.69h0Zm0,0h0Zm0,0h0Zm0,0,0,.08,0-.08ZM98.21,197l.13,0-.13,0Z" fill="#05446b"/><path d="M92.59,189.74A72.74,72.74,0,0,1,78,174.4c-6.51-9.13-13.71-23.3-17.27-44,3.14,4.86,7.5,8.22,13.55,8.22h.51a10.13,10.13,0,0,0,1.66.13c3.22,0,9.25-1.31,14.93-9.64C89.44,148.22,88.27,172.88,92.59,189.74Z" fill="#179fce"/><path d="M87.65,137.65c-1.14,14.35-1.55,30.49.35,44a74.49,74.49,0,0,1-7.75-9.32,97.63,97.63,0,0,1-14.51-32.84,17.37,17.37,0,0,0,8.59,2.16h.32a13.44,13.44,0,0,0,1.84.12,18.29,18.29,0,0,0,11.15-4.11m-32-42.51C52.6,176.26,98.34,197,98.34,197c-12.78-26.27,0-95.64,0-95.69-6,31.57-17.77,34.44-21.84,34.44a6,6,0,0,1-1.43-.14l-.74,0c-18.57,0-18.65-40.5-18.65-40.5Zm42.66,6.18h0Z" fill="#05446b"/><path d="M102.24,186.59c2.06-25.58,1.65-34.83.66-52.58,2.43,4.59,5.63,8.13,9.83,9.23a9,9,0,0,0,3.24.55h0c3.27,0,7.55-1.35,12.56-6C122.43,151.94,113.49,170.24,102.24,186.59Z" fill="#179fce"/><path d="M106.39,143.34a15.06,15.06,0,0,0,5.43,2.76,12.13,12.13,0,0,0,4.15.69,16.28,16.28,0,0,0,5.73-1.09,296.24,296.24,0,0,1-15.62,29.45,268.32,268.32,0,0,0,.32-31.81m-8.06-42c1.82,50,4.31,48,0,95.69,26.65-34.14,42.33-82.19,42.33-82.19-11.47,22.91-20.62,26-24.69,26a5.51,5.51,0,0,1-2.29-.41c-13.24-3.13-15.34-39.07-15.34-39.07Z" fill="#05446b"/><path d="M115.56,186.2c7.06-8.37,15.15-21.42,21.35-41.33a12.47,12.47,0,0,0,5.06,6.5,9.25,9.25,0,0,0,5.69,1.73q5.38,0,11.51-4.57A123.6,123.6,0,0,1,115.56,186.2Z" fill="#179fce"/><path d="M137.75,151.79a16.72,16.72,0,0,0,2.5,2,12.27,12.27,0,0,0,7.42,2.28,15.71,15.71,0,0,0,1.89-.12,120.81,120.81,0,0,1-23.35,20.39,130.77,130.77,0,0,0,11.53-24.58m2.92-37C130.19,182.57,98.34,197,98.34,197c61.34-22,76-70.52,76-70.52-13.24,20-22,23.61-26.69,23.61a6.08,6.08,0,0,1-3.92-1.16c-8.34-5.38-3.67-18-3.08-34.12Z" fill="#05446b"/><path d="M140.38,185.84a79.87,79.87,0,0,0,30.53-36.75c1,4.76,3.36,8.64,8.35,9.81a8.41,8.41,0,0,0,2.86.46,14.11,14.11,0,0,0,5.6-1.25C178.1,167.7,163.11,178.45,140.38,185.84Z" fill="#179fce"/><path d="M170.74,156.58a12.53,12.53,0,0,0,7.66,5.19l.63.19A109.14,109.14,0,0,1,157,176a82.86,82.86,0,0,0,13.78-19.46m40.61-31.5c-14.78,27.92-25.12,31.28-29.23,31.28a4.83,4.83,0,0,1-2-.33c-10.94-2.3-5.45-24.63-5.79-29.53C163.95,185.15,115,195.08,101.7,196.7c96.25-9.49,109.65-71.62,109.65-71.62ZM101.7,196.7l-3.37.31s1.22,0,3.37-.31Z" fill="#05446b"/><path d="M42.84,71.72S43.08,55.44,62.38,56" fill="none" stroke="#fff" stroke-miterlimit="10" stroke-width="4"/><path d="M69.55,40S50.25,60.95,73.69,63.85" fill="none" stroke="#fff" stroke-miterlimit="10" stroke-width="4"/><path d="M114.23,83.57s-14.07-1.65-9.93-13.24" fill="none" stroke="#fff" stroke-miterlimit="10" stroke-width="4"/><path d="M135.74,68.68s13.24-9.38,19,3c0,0-12.69,16.82,1.65,22.34" fill="none" stroke="#fff" stroke-miterlimit="10" stroke-width="4"/><path d="M178.22,66.6s-9.1,15.87-23.44,5.12" fill="none" stroke="#fff" stroke-miterlimit="10" stroke-width="4"/><path d="M96,34.76s19.31-14.89,35.58-6.07" fill="none" stroke="#fff" stroke-miterlimit="10" stroke-width="4"/><path d="M144.57,21.8S125.81,24,131.61,40" fill="none" stroke="#fff" stroke-miterlimit="10" stroke-width="4"/><path d="M108.89,28a13,13,0,0,0-8.44-11.16" fill="none" stroke="#fff" stroke-miterlimit="10" stroke-width="4"/><path d="M98.53,60.41s9.29-11.73,21-8.48" fill="none" stroke="#fff" stroke-miterlimit="10" stroke-width="4"/><path d="M149.26,47.17s3.59,7,23.44,4.19" fill="none" stroke="#fff" stroke-miterlimit="10" stroke-width="4"/><path d="M172.7,47.17s-3.31,8.55,8.27,10.76" fill="none" stroke="#fff" stroke-miterlimit="10" stroke-width="4"/><path d="M182.08,94.06S188,91.58,192.85,94c2.91,1.43,5.43,4.61,6.05,11.13" fill="none" stroke="#fff" stroke-miterlimit="10" stroke-width="4"/><path d="M191.9,118.63s-7.57-11.64,2.75-23.48" fill="none" stroke="#fff" stroke-miterlimit="10" stroke-width="4"/><path d="M67.88,21.8s8.78-.83,9.22,10.48" fill="none" stroke="#fff" stroke-miterlimit="10" stroke-width="4"/></g></g></svg>