<svg xmlns="http://www.w3.org/2000/svg" viewBox="0 0 441.64 197.06"><title>thecommunitymind_logo1</title><g id="Layer_2" data-name="Layer 2"><g id="Layer_1-2" data-name="Layer 1"><path d="M257.48,28.5H251V26h16V28.5h-6.44V50h-3.08Z"/><path d="M278.88,50V38.61c0-2.88-1-3.88-2.84-3.88a4.49,4.49,0,0,0-3.92,3.52V50h-3V26l3-.48V35A6.31,6.31,0,0,1,277,32.3c3.68,0,4.92,2.56,4.92,6V50Z"/><path d="M291.84,50.37c-4.16,0-7-3.08-7-9.12,0-5.56,2.88-9,6.64-9s5.64,2.64,5.64,7.08a9,9,0,0,1-.2,1.84h-9.12c-.12,3.56,1,6.84,5,6.84a5.28,5.28,0,0,0,3.56-1.56l1,1.64A7.2,7.2,0,0,1,291.84,50.37Zm-.28-15.92c-1.92,0-3.12,1.72-3.6,4.72h6.48C294.6,36.22,293.8,34.46,291.56,34.46Z"/><path d="M264.35,98.37c-7.05,0-12.2-5.3-12.2-15.4s5.15-15.4,12.2-15.4a10.85,10.85,0,0,1,7.2,2.2v3.45a9.4,9.4,0,0,0-6.45-2.4c-5.2,0-9,4-9,12.15s3.75,12.15,9,12.15a9.14,9.14,0,0,0,6.45-2.35v3.45A11.33,11.33,0,0,1,264.35,98.37Z"/><path d="M283.24,98.52c-5.25,0-8.9-4.2-8.9-11.35s3.65-11.35,8.9-11.35,8.8,4.3,8.8,11.35S288.39,98.52,283.24,98.52Zm0-19.75c-3.35,0-5.15,3.05-5.15,8.4s1.8,8.4,5.15,8.4,5.05-2.95,5.05-8.4S286.44,78.77,283.24,78.77Z"/><path d="M319,98V83.72c0-3.5-.95-4.8-3.25-4.8s-4.15,2.05-4.65,4.4V98h-3.75V83.72c0-3.5-1-4.8-3.25-4.8s-4.15,2.05-4.65,4.4V98h-3.75V76.57L299,76l.2,3.55a7.42,7.42,0,0,1,6-3.7,5.08,5.08,0,0,1,5.4,3.9c1.75-2.65,4.15-3.9,6.3-3.9,4.6,0,5.8,3.2,5.8,7.5V98Z"/><path d="M350.79,98V83.72c0-3.5-.95-4.8-3.25-4.8s-4.15,2.05-4.65,4.4V98h-3.75V83.72c0-3.5-1-4.8-3.25-4.8s-4.15,2.05-4.65,4.4V98h-3.75V76.57l3.35-.55.2,3.55a7.42,7.42,0,0,1,6-3.7,5.08,5.08,0,0,1,5.4,3.9c1.75-2.65,4.15-3.9,6.3-3.9,4.6,0,5.8,3.2,5.8,7.5V98Z"/><path d="M374.79,98.32c-2,0-3.15-1-3.3-3.3a7.76,7.76,0,0,1-6.15,3.45c-4.55,0-6.1-3.2-6.1-7.5V76.37H363v14.2c0,3.6,1.2,4.85,3.55,4.85s4.4-2.15,4.9-4.4V76.37h3.75V95c0,.9.3,1.3,1,1.3a2.11,2.11,0,0,0,1-.25v1.5A4,4,0,0,1,374.79,98.32Z"/><path d="M392.79,98V83.77c0-3.6-1.25-4.85-3.55-4.85s-4.4,2.15-4.9,4.4V98h-3.75V76.57l3.35-.55.2,3.55a7.8,7.8,0,0,1,6.25-3.7c4.6,0,6.15,3.2,6.15,7.5V98Z"/><path d="M403.14,72.42a2.25,2.25,0,0,1,0-4.5,2.25,2.25,0,0,1,0,4.5ZM401.29,98V76.42l3.75-.6V98Z"/><path d="M414.84,98.32c-2.9,0-4.25-1.8-4.25-5.8V78.82H408V76.37h2.55V71.12l3.75-.6v5.85h4.2v2.45h-4.2V92.67c0,2,.5,2.9,2,2.9a4.36,4.36,0,0,0,2.5-.8l.45,2A6.82,6.82,0,0,1,414.84,98.32Z"/><path d="M428.39,103.42c-1.25,3.3-2.75,4.55-5.05,4.55a5.76,5.76,0,0,1-2.15-.45v-2.6a4.25,4.25,0,0,0,1.3.25c1.8,0,2.8-1.5,4.45-7.4l-7.05-21.4h3.8l5.05,16.5,5-16.5h3.65Z"/><path d="M256.72,116h9.36l21.12,58.08L308.32,116h8.76v72h-8.64V141.89c0-1.2.12-4.8.24-6.6l-.6-.12c-.6,2.52-1.44,5.4-1.8,6.72L289.84,188h-6.12l-16.44-46.08a66.83,66.83,0,0,1-1.8-6.72l-.6.12c.12,2,.24,5.4.24,6.6V188h-8.4Z"/><path d="M333.16,126.66a5.4,5.4,0,0,1,0-10.8,5.4,5.4,0,1,1,0,10.8ZM328.72,188V136.26l9-1.44V188Z"/><path d="M378.52,188V153.89c0-8.64-3-11.64-8.52-11.64s-10.56,5.16-11.76,10.56V188h-9V136.62l8-1.32.48,8.52c3-5,9.24-8.88,15-8.88,11,0,14.76,7.68,14.76,18v35Z"/><path d="M436.12,188.81c-4.68,0-7.2-2-7.8-6.72A16.16,16.16,0,0,1,415,189.17c-10.92,0-18.48-9.6-18.48-27.12s7.56-27.12,18.48-27.12a16.11,16.11,0,0,1,13.08,6.84V116l9-1.44v66.36c0,2.16.72,3.12,2.28,3.12a5,5,0,0,0,2.28-.6V187A9.09,9.09,0,0,1,436.12,188.81Zm-8-39c-2.4-4.32-5.76-8-11.4-8-6.36,0-11.16,6.24-11.16,20.28s4.8,20.28,11.16,20.28c5.64,0,9-3.72,11.4-8Z"/><path d="M37.95,87.21S-.31,90.34,7.57,71.95C10.51,65.59,17,62.39,17,62.39s-1.77-29,27.43-26.2C42.84,15.23,85.55-13.46,122,15c9.09-6.34,50.73-10.76,53.76,18.75,0,0,32,9.93,22.19,41.37,0,0,16.36,3.86,11,21.79,0,0,14,32.54-16.81,33.37-13,.49-21.22-10.48-20.47-16,0,0-31,6.87-37.48-9.94a20,20,0,0,1-.62-8S96,109.14,80.12,85C80.12,85,57.06,99.62,37.95,87.21Z" fill="#cc699f"/><path d="M191.22,133.25a24.16,24.16,0,0,1-17.92-7.91,18.81,18.81,0,0,1-4.37-7.57c-8.68,1.34-31.59,3.25-37.62-12.39l-.09-.27a24,24,0,0,1-.82-4.78c-10.19,2.6-36.79,7.13-51.16-11.38-6.65,3.5-25.36,11.49-42.06,1.33-5.25.33-25.5,1-31.77-7.71-1.62-2.25-3-6.12-.61-11.8A25,25,0,0,1,14,60.67c.1-4.15,1.11-14.15,8.18-21,4.77-4.61,11.27-6.85,19.33-6.67,1-9.62,9.21-19.87,21.37-26.39,19.21-10.29,41.24-8.49,59.32,4.73,8.55-4.31,27.48-6.22,40.58-.22,8.8,4,14.2,11,15.7,20.38,4.34,1.72,15.17,6.92,20.83,17.68,3.72,7.07,4.48,15.14,2.27,24a19.52,19.52,0,0,1,9.1,7.86c2.52,4.37,3,9.63,1.38,15.64,1.48,3.89,6,17.79-.14,27.44-3.69,5.78-10.34,8.84-19.76,9.09Zm-16.08-22.87-.57,4.25c-.18,1.37.85,4.1,3.18,6.67A18.23,18.23,0,0,0,192,127.24c7.33-.2,12.33-2.32,14.89-6.32,5.37-8.38-.66-22.73-.72-22.87l-.43-1,.31-1c1.44-4.77,1.27-8.78-.51-11.89-2.67-4.68-8.22-6.1-8.28-6.11l-3.09-.76.93-3c2.62-8.39,2.25-15.86-1.08-22.2-5.88-11.19-19-15.37-19.14-15.41L172.95,36l-.2-2a20.35,20.35,0,0,0-12.48-17.42c-13.3-6.09-31.94-2.42-36.58.82l-1.82,1.27-1.75-1.36C103.67,4.49,83.33,2.46,65.7,11.91,54.32,18,46.8,27.89,47.41,36l.27,3.55-3.54-.33c-7.73-.73-13.72.88-17.78,4.8C19.41,50.65,20,62.1,20,62.21l.11,2-1.78.89s-5.58,2.85-8,8.13c-1.57,3.67-.39,5.31,0,5.85C14,84.15,29,84.93,37.7,84.22l1-.08.86.56C56.81,95.88,78.3,82.6,78.51,82.47L81,80.9l1.62,2.46C97,105.29,132.18,93.59,132.53,93.47l4.78-1.63-.86,5a17.34,17.34,0,0,0,.51,6.53c5.59,14,33.69,8,34,8Z" fill="#991464"/><ellipse cx="32.36" cy="115.75" rx="7.48" ry="6.38" fill="#05446b"/><path d="M32.36,112.37c2.43,0,4.48,1.55,4.48,3.38s-2.05,3.38-4.48,3.38-4.48-1.55-4.48-3.38,2.05-3.38,4.48-3.38m0-6c-5.79,0-10.48,4.2-10.48,9.38s4.69,9.38,10.48,9.38,10.48-4.2,10.48-9.38-4.69-9.38-10.48-9.38Z" fill="#05446b"/><ellipse cx="75.07" cy="118.68" rx="7.48" ry="6.38" fill="#05446b"/><path d="M75.07,115.3c2.43,0,4.48,1.55,4.48,3.38s-2.05,3.38-4.48,3.38-4.48-1.55-4.48-3.38,2.05-3.38,4.48-3.38m0-6c-5.79,0-10.48,4.2-10.48,9.38s4.69,9.38,10.48,9.38,10.48-4.2,10.48-9.38-4.69-9.38-10.48-9.38Z" fill="#05446b"/><ellipse cx="117.88" cy="125.13" rx="7.48" ry="6.38" fill="#05446b"/><path d="M117.88,121.75c2.43,0,4.48,1.55,4.48,3.38s-2.05,3.38-4.48,3.38-4.48-1.55-4.48-3.38,2.05-3.38,4.48-3.38m0-6c-5.79,0-10.48,4.2-10.48,9.38s4.69,9.38,10.48,9.38,10.48-4.2,10.48-9.38-4.69-9.38-10.48-9.38Z" fill="#05446b"/><ellipse cx="150.41" cy="136.64" rx="6.6" ry="5.59" fill="#05446b"/><path d="M150.41,134.06c1.92,0,3.6,1.21,3.6,2.59s-1.68,2.59-3.6,2.59-3.6-1.21-3.6-2.59,1.68-2.59,3.6-2.59m0-6c-5.3,0-9.6,3.85-9.6,8.59s4.3,8.59,9.6,8.59,9.6-3.85,9.6-8.59-4.3-8.59-9.6-8.59Z" fill="#05446b"/><ellipse cx="184.17" cy="144.63" rx="4.73" ry="3.92" fill="#05446b"/><path d="M184.17,143.71c1.13,0,1.73.65,1.73.92s-.61.92-1.73.92-1.73-.65-1.73-.92.61-.92,1.73-.92m0-6c-4.27,0-7.73,3.1-7.73,6.92s3.46,6.92,7.73,6.92,7.73-3.1,7.73-6.92-3.46-6.92-7.73-6.92Z" fill="#05446b"/><path d="M74,188.35C46.18,179.89,26.27,166,14.65,146.83c-9.78-16.12-11.93-33.3-11.58-46.65,6.51,32.39,24.42,35.35,30.64,35.35a13.38,13.38,0,0,0,1.92-.12c5.81-.91,10.37-6.06,13.86-12.41-.6,21.63,3.84,39.41,13.27,53.08A60,60,0,0,0,74,188.35Z" fill="#179fce"/><path d="M8.16,122.53a40.85,40.85,0,0,0,4,5.49c8.31,9.47,17.81,10.49,21.51,10.49a16.36,16.36,0,0,0,2.39-.15,18,18,0,0,0,10.45-6c.78,18.06,5.36,33.24,13.73,45.36q1.28,1.85,2.61,3.52C42.06,173,26.78,161,17.28,145.38a75.39,75.39,0,0,1-9.13-22.85m-4.47-47S-28.65,175.56,98.21,197c-3.06-.54-59.64-11.78-42.54-101.76-.36,1.9-6.92,35-20.49,37.16a10.69,10.69,0,0,1-1.46.08c-6.1,0-29.23-3.53-30-57Zm52,19.69Zm0,0Zm0,0h0Zm0,0,0,.08,0-.08ZM98.21,197l.13,0-.13,0Z" fill="#05446b"/><path d="M92.59,189.79A72.78,72.78,0,0,1,78,174.45c-6.51-9.12-13.71-23.29-17.27-44,3.14,4.86,7.5,8.22,13.55,8.22h.51a10.19,10.19,0,0,0,1.66.13c3.22,0,9.25-1.31,14.93-9.64C89.44,148.27,88.27,172.93,92.59,189.79Z" fill="#179fce"/><path d="M87.65,137.7c-1.14,14.35-1.55,30.49.35,44a74.49,74.49,0,0,1-7.75-9.32,97.63,97.63,0,0,1-14.51-32.84,17.37,17.37,0,0,0,8.59,2.16h.32a13.44,13.44,0,0,0,1.84.12,18.29,18.29,0,0,0,11.15-4.11m-32-42.51C52.6,176.3,98.34,197.06,98.34,197.06c-12.78-26.27,0-95.64,0-95.69-6,31.57-17.77,34.44-21.84,34.44a6,6,0,0,1-1.43-.14l-.74,0c-18.57,0-18.65-40.5-18.65-40.5Zm42.66,6.18h0Z" fill="#05446b"/><path d="M102.24,186.64c2.06-25.58,1.65-34.83.66-52.58,2.43,4.59,5.63,8.13,9.82,9.23a9,9,0,0,0,3.24.55c3.27,0,7.56-1.35,12.56-6C122.43,152,113.49,170.29,102.24,186.64Z" fill="#179fce"/><path d="M106.39,143.39a15.06,15.06,0,0,0,5.43,2.76,12.13,12.13,0,0,0,4.15.69,16.28,16.28,0,0,0,5.74-1.09,295.73,295.73,0,0,1-15.63,29.46,268.36,268.36,0,0,0,.32-31.82m-8.06-42c1.82,50,4.31,48,0,95.69,26.65-34.14,42.33-82.19,42.33-82.19-11.47,22.91-20.62,26-24.69,26a5.51,5.51,0,0,1-2.29-.41c-13.24-3.13-15.34-39.07-15.34-39.07Z" fill="#05446b"/><path d="M115.56,186.25c7.06-8.37,15.15-21.42,21.35-41.33a12.48,12.48,0,0,0,5.06,6.5,9.25,9.25,0,0,0,5.69,1.73q5.38,0,11.51-4.57A123.58,123.58,0,0,1,115.56,186.25Z" fill="#179fce"/><path d="M137.75,151.84a16.73,16.73,0,0,0,2.5,2,12.27,12.27,0,0,0,7.42,2.28,15.7,15.7,0,0,0,1.87-.11,120,120,0,0,1-23.34,20.42,130.74,130.74,0,0,0,11.56-24.61m2.92-37c-10.48,67.75-42.33,82.19-42.33,82.19,61.34-22,76-70.52,76-70.52-13.24,20-22,23.61-26.69,23.61a6.08,6.08,0,0,1-3.92-1.16c-8.34-5.38-3.67-18-3.08-34.12Z" fill="#05446b"/><path d="M140.39,185.89a79.86,79.86,0,0,0,30.52-36.75c1,4.76,3.36,8.64,8.35,9.81a8.41,8.41,0,0,0,2.86.46,14.11,14.11,0,0,0,5.6-1.25C178.1,167.75,163.11,178.5,140.39,185.89Z" fill="#179fce"/><path d="M170.74,156.63a12.53,12.53,0,0,0,7.66,5.19l.63.19A109.13,109.13,0,0,1,157,176.09a82.86,82.86,0,0,0,13.78-19.46m40.61-31.5C196.57,153,186.24,156.4,182.12,156.4a4.83,4.83,0,0,1-2-.33c-10.94-2.3-5.45-24.63-5.79-29.53C163.95,185.2,115,195.13,101.7,196.75c96.25-9.49,109.65-71.62,109.65-71.62ZM101.7,196.75l-3.37.31s1.22,0,3.37-.31Z" fill="#05446b"/><path d="M44.84,71.8l-4-.07a19,19,0,0,1,5.55-12.46c3.83-3.67,9.23-5.42,16-5.23l-.12,4c-5.69-.17-10.11,1.21-13.13,4.09A15.19,15.19,0,0,0,44.84,71.8Z" fill="#fff"/><path d="M73.44,65.88c-7-.86-11.28-3.39-12.79-7.52-3-8.07,6.36-18.51,7.43-19.67L71,41.4C68.57,44.07,62.6,52.07,64.41,57c1,2.6,4.16,4.26,9.53,4.92Z" fill="#fff"/><path d="M114,85.61c-.32,0-7.83-1-11-6.15-1.69-2.73-1.87-6-.54-9.75l3.77,1.35c-.92,2.57-.86,4.62.16,6.28,2.18,3.53,8.06,4.29,8.12,4.3Z" fill="#fff"/><path d="M155.71,96c-4.09-1.57-6.67-4.14-7.67-7.62-1.85-6.45,2.58-14,4.4-16.74a7.74,7.74,0,0,0-4.76-4c-4.92-1.31-10.74,2.73-10.79,2.77l-2.31-3.27c.3-.21,7.39-5.16,14.11-3.37,3.43.91,6.08,3.33,7.89,7.2l.51,1.09-.72,1c-1.73,2.3-5.9,9.35-4.48,14.29.64,2.24,2.36,3.87,5.26,5Z" fill="#fff"/><path d="M164.57,77.51c-3.64,0-7.33-1.39-11-4.14l2.4-3.2c3.69,2.77,7.28,3.82,10.68,3.13,6-1.23,9.79-7.58,9.83-7.65l3.47,2c-.19.32-4.64,8-12.46,9.56A14.39,14.39,0,0,1,164.57,77.51Z" fill="#fff"/><path d="M97.25,36.39l-2.44-3.17c.83-.64,20.54-15.58,37.75-6.24l-1.91,3.52C115.73,22.41,97.43,36.25,97.25,36.39Z" fill="#fff"/><path d="M129.73,40.73c-1.82-5-1.62-9.41.59-13,4.1-6.64,13.62-7.83,14-7.88l.47,4c-.08,0-8,1-11.1,6-1.53,2.49-1.61,5.69-.22,9.52Z" fill="#fff"/><path d="M106.89,28.09a11,11,0,0,0-7.19-9.36L101.18,15a14.92,14.92,0,0,1,9.7,13Z" fill="#fff"/><path d="M100.1,61.7,97,59.22c.41-.52,10.25-12.73,23.14-9.17L119,53.9C108.68,51,100.18,61.59,100.1,61.7Z" fill="#fff"/><path d="M164,54.07c-13.07,0-16.2-5.23-16.56-5.94l1.78-.91,1.75-1c0,.06,3.66,5.69,21.42,3.18l.56,4A64.2,64.2,0,0,1,164,54.07Z" fill="#fff"/><path d="M180.6,59.94c-4.53-.86-7.64-2.75-9.22-5.61a9.94,9.94,0,0,1-.54-7.84l3.74,1.43a5.92,5.92,0,0,0,.32,4.5c1,1.75,3.16,3,6.45,3.58Z" fill="#fff"/><path d="M196.91,105.33c-.47-4.94-2.13-8.14-4.94-9.52-4-1.94-9.07.13-9.12.15l-1.54-3.69c.28-.12,6.83-2.8,12.43,0,4.14,2,6.55,6.32,7.16,12.73Z" fill="#fff"/><path d="M190.23,119.77a21.92,21.92,0,0,1,2.92-25.89l3,2.63c-9.22,10.58-2.65,21-2.58,21.08Z" fill="#fff"/><path d="M75.11,32.41c-.13-3.26-1-5.63-2.64-7a6.53,6.53,0,0,0-4.4-1.52l-.37-4a10.6,10.6,0,0,1,7.41,2.49c2.48,2.17,3.83,5.5,4,9.9Z" fill="#fff"/></g></g></svg>